PathFileType	4	(X/Y/Z)	OpenSim_Sub09_EMGBaseline_Magnet.trc
DataRate	CameraRate	NumFrames	NumMarkers	Units	OrigDataRate	OrigDataStartFrame	OrigNumFrames
100	100	33	8	m	100	5476	7301
Frame#	Time	torso_imu_offset_imu	pelvis_imu_offset_imu	tibia_r_imu_offset_imu	femur_r_imu_offset_imu	tibia_l_imu_offset_imu	femur_l_imu_offset_imu	toes_r_imu_offset_imu	toes_l_imu_offset_imu
				X1	Y1	Z1	X2	Y2	Z2	X3	Y3	Z3	X4	Y4	Z4	X5	Y5	Z5	X6	Y6	Z6	X7	Y7	Z7	X8		Y8	Z8	

5476	54.75000000	-0.89819300	-0.21118200	0.01831100	-0.63501000	0.30078100	-0.59985400	-0.63647500	-0.54296900	-0.07763700	-0.83227500	-0.17138700	0.01489300	-0.58325200	0.50439500	0.23828100	-0.70678700	0.31372100	0.29223600	-0.66870100	-0.08203100	-0.45263700	-0.70654300	-0.10546900	-0.39282200
5477	54.76000000	-0.90039100	-0.21118200	0.01831100	-0.64160200	0.30688500	-0.60253900	-0.65600600	-0.51806600	-0.08960000	-0.82812500	-0.17138700	0.02417000	-0.58105500	0.51098600	0.23584000	-0.70288100	0.32470700	0.30127000	-0.65039100	-0.06127900	-0.47998000	-0.70434600	-0.10766600	-0.38598600
5478	54.77000000	-0.89794900	-0.22168000	0.02539100	-0.63964800	0.30908200	-0.59326200	-0.68017600	-0.48657200	-0.10205100	-0.83007800	-0.17749000	0.01977500	-0.57226600	0.51538100	0.23779300	-0.69848600	0.32470700	0.29882800	-0.63183600	-0.05273400	-0.49877900	-0.70898400	-0.10327100	-0.39062500
5479	54.78000000	-0.90039100	-0.21118200	0.02490200	-0.63501000	0.30493200	-0.60009800	-0.69335900	-0.46582000	-0.11157200	-0.82983400	-0.18579100	0.02929700	-0.57251000	0.52197300	0.23974600	-0.69189500	0.32714800	0.30786100	-0.60717800	-0.03784200	-0.52172900	-0.71118200	-0.10546900	-0.39282200
5480	54.79000000	-0.90234400	-0.21752900	0.02514600	-0.63501000	0.30078100	-0.59741200	-0.71118200	-0.43872100	-0.12158200	-0.81884800	-0.20019500	0.02758800	-0.56372100	0.52636700	0.23925800	-0.68994100	0.33129900	0.31469700	-0.59472700	-0.03369100	-0.54052700	-0.71118200	-0.10327100	-0.39282200
5481	54.80000000	-0.90478500	-0.21337900	0.03149400	-0.63720700	0.30078100	-0.59521500	-0.72216800	-0.41992200	-0.12890600	-0.81054700	-0.20019500	0.03662100	-0.56176800	0.53295900	0.23681600	-0.68774400	0.33154300	0.31469700	-0.57421900	-0.02099600	-0.56127900	-0.70898400	-0.10546900	-0.38623000
5482	54.81000000	-0.90454100	-0.21752900	0.02734400	-0.63525400	0.30712900	-0.60253900	-0.73120100	-0.39892600	-0.13623000	-0.81225600	-0.21264600	0.03491200	-0.55957000	0.53955100	0.23852500	-0.68554700	0.33593800	0.31225600	-0.55566400	-0.00830100	-0.57397500	-0.71362300	-0.10107400	-0.39062500
5483	54.82000000	-0.90039100	-0.21313500	0.03149400	-0.63696300	0.29858400	-0.60449200	-0.74023400	-0.37817400	-0.13916000	-0.81201200	-0.21899400	0.03979500	-0.54858400	0.54834000	0.23584000	-0.68554700	0.33789100	0.31445300	-0.53955100	0.01025400	-0.58667000	-0.71386700	-0.09448200	-0.39062500
5484	54.83000000	-0.90234400	-0.21752900	0.03173800	-0.63916000	0.29858400	-0.59985400	-0.74292000	-0.36767600	-0.14184600	-0.81201200	-0.22094700	0.03515600	-0.54663100	0.55053700	0.23779300	-0.68383800	0.34887700	0.32104500	-0.53344700	0.01464800	-0.59912100	-0.71582000	-0.09692400	-0.39062500
5485	54.84000000	-0.89843800	-0.20898400	0.03369100	-0.63696300	0.29858400	-0.59741200	-0.74951200	-0.35717800	-0.15332000	-0.80981400	-0.22705100	0.04223600	-0.54223600	0.55932600	0.23974600	-0.68139600	0.34228500	0.32348600	-0.52563500	0.03100600	-0.60351600	-0.71606400	-0.09252900	-0.38623000
5486	54.85000000	-0.90258800	-0.21118200	0.03369100	-0.63940400	0.30078100	-0.59741200	-0.75195300	-0.34668000	-0.15136700	-0.80786100	-0.21875000	0.04199200	-0.53369100	0.56811500	0.23681600	-0.68164100	0.34668000	0.31445300	-0.51953100	0.04126000	-0.60376000	-0.71606400	-0.09033200	-0.38159200
5487	54.86000000	-0.90258800	-0.21313500	0.02929700	-0.63696300	0.29858400	-0.59741200	-0.75000000	-0.34057600	-0.14502000	-0.81201200	-0.22314500	0.04663100	-0.52490200	0.57470700	0.23877000	-0.67504900	0.35107400	0.31884800	-0.52172900	0.04321300	-0.59960900	-0.71875000	-0.08374000	-0.38183600
5488	54.87000000	-0.90283200	-0.20678700	0.03344700	-0.64111300	0.29223600	-0.59716800	-0.74975600	-0.34472700	-0.14917000	-0.81225600	-0.21679700	0.04882800	-0.51855500	0.58374000	0.22924800	-0.67944300	0.35327100	0.31884800	-0.51977500	0.04736300	-0.60376000	-0.72290000	-0.08813500	-0.37719700
5489	54.88000000	-0.90063500	-0.20898400	0.03149400	-0.63916000	0.29443400	-0.59497100	-0.74975600	-0.34692400	-0.13793900	-0.81225600	-0.21264600	0.05542000	-0.50732400	0.59033200	0.22876000	-0.67968800	0.35546900	0.32543900	-0.52612300	0.05151400	-0.60400400	-0.72534200	-0.08593800	-0.36596700
5490	54.89000000	-0.90283200	-0.20678700	0.02685500	-0.64526400	0.29003900	-0.60180700	-0.74536100	-0.35522500	-0.13769500	-0.80639600	-0.20434600	0.05297900	-0.49438500	0.60571300	0.22778300	-0.67504900	0.35327100	0.31665000	-0.53002900	0.04321300	-0.59545900	-0.73242200	-0.07299800	-0.36377000
5491	54.90000000	-0.90063500	-0.20898400	0.02929700	-0.63891600	0.28808600	-0.59008800	-0.74511700	-0.36132800	-0.13525400	-0.81274400	-0.20019500	0.06176800	-0.48779300	0.60791000	0.22534200	-0.67529300	0.35986300	0.32324200	-0.54028300	0.03491200	-0.59130900	-0.73242200	-0.07519500	-0.36377000
5492	54.91000000	-0.90722700	-0.20263700	0.02661100	-0.64526400	0.28808600	-0.59252900	-0.73437500	-0.37402300	-0.12597700	-0.81323200	-0.18579100	0.07055700	-0.47045900	0.62109400	0.21777300	-0.68188500	0.35766600	0.31201200	-0.54858400	0.03271500	-0.59326200	-0.74389600	-0.07080100	-0.35473600
5493	54.92000000	-0.90527300	-0.19628900	0.02636700	-0.64721700	0.28173800	-0.59448200	-0.73584000	-0.38647500	-0.11206100	-0.81127900	-0.18383800	0.07275400	-0.46411100	0.63867200	0.21020500	-0.67529300	0.35766600	0.30761700	-0.56494100	0.02002000	-0.57031200	-0.74169900	-0.06420900	-0.34130900
5494	54.93000000	-0.90942400	-0.19433600	0.02197300	-0.65161100	0.28173800	-0.59228500	-0.72705100	-0.40332000	-0.10253900	-0.81323200	-0.18164100	0.07495100	-0.45092800	0.64550800	0.20507800	-0.67968800	0.35766600	0.30297900	-0.58105500	0.00537100	-0.55566400	-0.74853500	-0.06225600	-0.33471700
5495	54.94000000	-0.90502900	-0.19848600	0.01562500	-0.65136700	0.27734400	-0.59448200	-0.72265600	-0.40747100	-0.08007800	-0.80932600	-0.17334000	0.08374000	-0.43798800	0.66088900	0.20190400	-0.68212900	0.36401400	0.30981400	-0.60595700	0.00097700	-0.53271500	-0.75341800	-0.05346700	-0.31665000
5496	54.95000000	-0.91137700	-0.20068400	0.01342800	-0.65356400	0.27539100	-0.58960000	-0.72045900	-0.41577100	-0.07080100	-0.80517600	-0.17968800	0.10229500	-0.42919900	0.66748000	0.20166000	-0.68212900	0.36621100	0.29394500	-0.62841800	-0.02002000	-0.50122100	-0.76245100	-0.05371100	-0.30322300
5497	54.96000000	-0.91821300	-0.19213900	0.01293900	-0.65356400	0.27319300	-0.58960000	-0.71826200	-0.41796900	-0.07299800	-0.80078100	-0.18383800	0.10717800	-0.41162100	0.67627000	0.19873000	-0.68212900	0.36621100	0.28955100	-0.64086900	-0.02441400	-0.48461900	-0.76709000	-0.04492200	-0.29443400
5498	54.97000000	-0.91186500	-0.18359400	0.00830100	-0.64941400	0.27954100	-0.58984400	-0.71386700	-0.42211900	-0.07519500	-0.80053700	-0.19213900	0.10961900	-0.40063500	0.68286100	0.19360400	-0.68432600	0.36621100	0.28051800	-0.65332000	-0.02661100	-0.46801800	-0.77392600	-0.04077100	-0.26953100
5499	54.98000000	-0.91406200	-0.18579100	-0.00048800	-0.65795900	0.28149400	-0.58520500	-0.70922900	-0.43676800	-0.06567400	-0.79834000	-0.19628900	0.11450200	-0.37866200	0.69604500	0.19043000	-0.69091800	0.36181600	0.27612300	-0.66357400	-0.03515600	-0.45117200	-0.78100600	-0.03198200	-0.25170900
5500	54.99000000	-0.91186500	-0.18359400	-0.00488300	-0.65576200	0.27734400	-0.58276400	-0.70239300	-0.45141600	-0.04956100	-0.79418900	-0.19604500	0.10766600	-0.36547900	0.70727500	0.19213900	-0.69335900	0.36621100	0.27148400	-0.67187500	-0.04150400	-0.43872100	-0.79028300	-0.02563500	-0.22241200
5501	55	-0.91406200	-0.18579100	-0.00268600	-0.66235400	0.27734400	-0.57348600	-0.69165000	-0.45971700	-0.03588900	-0.79834000	-0.19824200	0.11230500	-0.35449200	0.71386700	0.19384800	-0.69970700	0.35961900	0.25805700	-0.67773400	-0.04980500	-0.43237300	-0.79296900	-0.01049800	-0.19775400
5502	55.01000000	-0.90771500	-0.18359400	-0.00268600	-0.66674800	0.27929700	-0.57592800	-0.68725600	-0.47241200	-0.01757800	-0.78808600	-0.19409200	0.12597700	-0.33032200	0.72265600	0.19091800	-0.70385700	0.35522500	0.25585900	-0.68408200	-0.05175800	-0.42602500	-0.80029300	0.00463900	-0.16186500
5503	55.02000000	-0.91186500	-0.18579100	-0.01806600	-0.67065400	0.27075200	-0.56860400	-0.68725600	-0.47021500	-0.00415000	-0.79003900	-0.19213900	0.13037100	-0.31689500	0.72485400	0.18823200	-0.70605500	0.35302700	0.24926800	-0.68359400	-0.06616200	-0.41967800	-0.80127000	0.02636700	-0.13281200
5504	55.03000000	-0.91210900	-0.17944300	-0.01611300	-0.67504900	0.27075200	-0.56616200	-0.68090800	-0.47241200	0.00708000	-0.79443400	-0.19213900	0.13501000	-0.29931600	0.74023400	0.19189500	-0.71899400	0.34423800	0.23364300	-0.68554700	-0.07031200	-0.42163100	-0.80639600	0.04614300	-0.09912100
5505	55.04000000	-0.91626000	-0.18383800	-0.01147500	-0.67236300	0.25830100	-0.57275400	-0.67651400	-0.48291000	0.01855500	-0.79003900	-0.19409200	0.13964800	-0.27270500	0.74267600	0.18017600	-0.72949200	0.33105500	0.22485400	-0.68774400	-0.07031200	-0.42163100	-0.80712900	0.06567400	-0.06103500
5506	55.05000000	-0.92041000	-0.18579100	-0.01367200	-0.67895500	0.26025400	-0.57519500	-0.66796900	-0.48901400	0.02099600	-0.78784200	-0.19824200	0.14892600	-0.25512700	0.75366200	0.18164100	-0.73584000	0.32006800	0.22949200	-0.68554700	-0.07446300	-0.41748000	-0.80346700	0.08740200	-0.02294900
5507	55.06000000	-0.91601600	-0.19018600	-0.01562500	-0.68090800	0.25390600	-0.57714800	-0.66113300	-0.50366200	0.02832000	-0.77929700	-0.20849600	0.15625000	-0.23291000	0.75805700	0.18115200	-0.73779300	0.31127900	0.21386700	-0.68725600	-0.08447300	-0.41943400	-0.80419900	0.10913100	0.01513700
5508	55.07000000	-0.91821300	-0.18579100	-0.02246100	-0.67627000	0.24780300	-0.58642600	-0.65039100	-0.51196300	0.03979500	-0.77270500	-0.21679700	0.15893600	-0.21752900	0.77124000	0.17138700	-0.74169900	0.30053700	0.21386700	-0.68750000	-0.08252000	-0.41308600	-0.79394500	0.13549800	0.05786100
